<svg xmlns="http://www.w3.org/2000/svg" version="1.1" xmlns:xlink="http://www.w3.org/1999/xlink" xmlns:svgjs="http://svgjs.dev/svgjs" width="1500" height="1500" viewBox="0 0 1500 1500"><rect width="1500" height="1500" fill="#000000"></rect><g transform="matrix(0.6666666666666666,0,0,0.6666666666666666,249.50000000000006,249.50000000000006)"><svg viewBox="0 0 280 280" data-background-color="#ffffff" preserveAspectRatio="xMidYMid meet" height="1500" width="1500" xmlns="http://www.w3.org/2000/svg" xmlns:xlink="http://www.w3.org/1999/xlink"><g id="tight-bounds" transform="matrix(1,0,0,1,0.13999999999998636,0.13999999999998636)"><svg viewBox="0 0 279.72 279.72" height="279.72" width="279.72"><g><svg viewBox="0 0 279.72 279.72" height="279.72" width="279.72"><g><svg viewBox="0 0 279.72 279.72" height="279.72" width="279.72"><g id="textblocktransform"><svg viewBox="0 0 279.72 279.72" height="279.72" width="279.72" id="textblock"><g><svg viewBox="0 0 279.72 279.72" height="279.72" width="279.72"><g transform="matrix(1,0,0,1,57.446704652707865,57.446704652707865)"><svg viewBox="0 0 164.8265906945843 164.8265906945843" height="164.8265906945843" width="164.8265906945843"><g id="icon-0"><circle r="82" cx="82.41329534729215" cy="82.41329534729215" fill="#ffffff" data-fill-palette-color="accent"></circle><svg xmlns="http://www.w3.org/2000/svg" xmlns:xlink="http://www.w3.org/1999/xlink" version="1.1" x="24.72398860418764" y="24.723988604187646" viewBox="0 0 100 100" enable-background="new 0 0 100 100" xml:space="preserve" height="115.378613486209" width="115.378613486209" class="icon-xg-0" data-fill-palette-color="quaternary" id="xg-0"><polygon points="95.84,33.255 50,10.469 4.16,33.255 0,24.883 49.935,0.059 49.955,0 50,0.026 50.045,0 50.065,0.059 100,24.883 " fill="#000000" data-fill-palette-color="quaternary"></polygon><path d="M50.43 45.228c-3.001-2.865-20.215-12.826-43.763-2.683 0 0.163 0 2.969 0 7.266V98.21H42.35c1.218 1.041 4.128 1.79 7.533 1.79 3.418 0 6.321-0.749 7.552-1.79h35.898V49.811c0-4.297 0-7.103 0-7.266C70.749 32.598 52.708 43.125 50.43 45.228zM47.227 94.739c0-1.907-16.745-13.06-36.094-0.892V46.66c3.828-2.207 8.984-3.548 14.674-3.548 11.836 0 21.419 3.88 21.419 11.094V94.739zM89.134 93.848c-19.336-12.168-36.08-1.016-36.08 0.892V54.206c0-7.214 9.59-11.094 21.412-11.094 5.69 0 10.847 1.341 14.668 3.548V93.848z" fill="#000000" data-fill-palette-color="quaternary"></path></svg></g></svg></g><g id="text-0"><path d="M26.666 97.461l-1.146 3.456c-0.938-0.311-1.856-0.321-2.752-0.03-0.899 0.297-1.803 0.759-2.712 1.386-0.909 0.627-1.849 1.303-2.819 2.03-0.979 0.731-1.999 1.385-3.061 1.961-1.062 0.576-2.179 0.964-3.35 1.163-1.18 0.204-2.427 0.088-3.742-0.347v0l1.146-3.456c0.913 0.302 1.818 0.305 2.717 0.008 0.897-0.291 1.806-0.747 2.728-1.37 0.922-0.623 1.869-1.3 2.841-2.034 0.97-0.727 1.98-1.38 3.029-1.96 1.049-0.58 2.164-0.972 3.344-1.176 1.178-0.198 2.437-0.075 3.777 0.369zM8.306 103.649l-1.145 3.456c-1.398-0.463-2.483-1.173-3.257-2.131-0.778-0.966-1.243-2.105-1.397-3.416-0.158-1.32 0.007-2.714 0.494-4.182v0l2.968 0.983c-0.421 1.27-0.422 2.375-0.004 3.314 0.418 0.939 1.199 1.598 2.341 1.976zM25.444 100.892l1.145-3.456c1.366 0.453 2.445 1.161 3.238 2.124 0.793 0.964 1.267 2.098 1.422 3.404 0.162 1.307-0.005 2.708-0.5 4.201v0l-3.006-0.996c0.421-1.27 0.428-2.373 0.023-3.307-0.406-0.935-1.18-1.591-2.322-1.97zM10.911 92.453l-0.418 3.442c-1.185-0.251-2.159-0.131-2.924 0.36-0.765 0.49-1.298 1.192-1.6 2.104v0l-2.968-0.983c0.393-1.187 0.992-2.182 1.796-2.985 0.798-0.805 1.72-1.385 2.766-1.74 1.045-0.355 2.162-0.421 3.348-0.198zM20.747 112.404l0.393-3.365c1.646 0.376 3.052 0.313 4.216-0.187 1.164-0.5 1.96-1.394 2.387-2.683v0l3.006 0.996c-0.713 2.151-1.954 3.684-3.723 4.6-1.763 0.917-3.856 1.131-6.279 0.639z" fill="#ffffff" data-fill-palette-color="primary"></path><path d="M32.291 73.034v0l-2.484-1.619c0.727-1.115 0.961-2.207 0.701-3.274-0.263-1.062-0.997-1.986-2.202-2.772v0l1.987-3.05c1.206 0.786 2.099 1.773 2.681 2.962 0.572 1.191 0.804 2.466 0.697 3.825-0.105 1.368-0.565 2.677-1.38 3.928zM43.606 79.926l-2.12 3.253-2.644-1.724 2.119-3.253zM32.681 72.806l-2.12 3.253-2.654-1.728 2.12-3.254zM41.637 69.241l-1.988 3.05-0.803-0.523 1.988-3.05zM40.868 68.74l-1.988 3.05c-1.228-0.8-2.387-1.11-3.476-0.929-1.089 0.181-1.997 0.829-2.723 1.945v0l-2.485-1.618c0.815-1.251 1.83-2.198 3.045-2.844 1.211-0.639 2.484-0.93 3.817-0.871 1.334 0.059 2.604 0.481 3.81 1.267zM22.396 66.587l-1.899 2.915-2.645-1.724 1.9-2.915zM30.327 62.341v0l-1.987 3.05c-1.166-0.76-2.265-1.031-3.299-0.813-1.036 0.223-1.918 0.893-2.645 2.009v0l-2.644-1.724c0.844-1.296 1.853-2.271 3.026-2.927 1.17-0.65 2.414-0.947 3.734-0.889 1.315 0.063 2.587 0.494 3.815 1.294zM39.615 72.269l1.988-3.05c1.251 0.815 2.165 1.808 2.742 2.978 0.577 1.171 0.809 2.429 0.694 3.775-0.111 1.34-0.588 2.658-1.433 3.954v0l-2.645-1.724c0.727-1.115 0.973-2.195 0.739-3.239-0.229-1.04-0.924-1.938-2.085-2.694zM42.032 82.342l-1.988 3.051-23.635-15.401 1.988-3.05z" fill="#ffffff" data-fill-palette-color="primary"></path><path d="M46.982 38.488l-3.039 2.728-2.109-2.349 3.04-2.728zM56.475 49.063l-3.04 2.728-2.115-2.356 3.039-2.729zM57.338 38.232l-2.71 2.432-1.603-1.786 2.709-2.432zM55.734 36.446v0l-2.709 2.432c-0.93-1.036-1.927-1.578-2.991-1.625-1.064-0.048-2.091 0.373-3.082 1.262v0l-2.108-2.349c1.171-1.051 2.408-1.741 3.711-2.071 1.298-0.325 2.575-0.287 3.829 0.113 1.254 0.401 2.371 1.147 3.35 2.238zM54.601 40.634l2.71-2.432c0.997 1.111 1.623 2.306 1.877 3.587 0.25 1.275 0.151 2.548-0.298 3.819-0.459 1.27-1.274 2.431-2.445 3.482v0l-2.116-2.357c0.991-0.889 1.51-1.875 1.56-2.958 0.049-1.083-0.38-2.13-1.288-3.141zM61.631 59.004l-2.709 2.432-18.844-20.992 2.709-2.432z" fill="#ffffff" data-fill-palette-color="primary"></path><path d="M83.873 34.836l-3.092 1.923-11.291-18.145 3.092-1.923zM73.614 41.219l-3.091 1.924-11.291-18.145 3.091-1.924zM80.76 36.725l3.091-1.923c0.774 1.244 1.177 2.522 1.209 3.832 0.035 1.316-0.287 2.554-0.967 3.715-0.671 1.162-1.663 2.151-2.976 2.968v0l-1.673-2.689c1.13-0.703 1.812-1.575 2.044-2.614 0.232-1.039-0.01-2.136-0.728-3.289zM70.502 43.109v0l3.091-1.924c0.718 1.153 1.6 1.852 2.646 2.095 1.046 0.244 2.138 0.012 3.274-0.695v0l1.673 2.689c-1.313 0.817-2.647 1.275-4.003 1.375-1.352 0.105-2.611-0.149-3.777-0.763-1.162-0.607-2.13-1.533-2.904-2.777z" fill="#ffffff" data-fill-palette-color="primary"></path><path d="M94.388 23.582v0l-1.078-2.762c1.24-0.484 2.065-1.236 2.476-2.255 0.404-1.017 0.345-2.195-0.179-3.535v0l3.391-1.325c0.523 1.34 0.675 2.663 0.457 3.969-0.228 1.302-0.781 2.474-1.659 3.517-0.881 1.052-2.017 1.849-3.408 2.391zM99.581 35.771l-3.617 1.412-1.148-2.94 3.617-1.413zM94.838 23.624l-3.617 1.412-1.152-2.95 3.617-1.412zM104.196 25.935l-3.391 1.324-0.349-0.892 3.392-1.325zM103.862 25.08l-3.391 1.324c-0.533-1.365-1.295-2.291-2.287-2.777-0.991-0.486-2.107-0.487-3.346-0.003v0l-1.079-2.762c1.39-0.543 2.767-0.723 4.131-0.541 1.357 0.185 2.561 0.689 3.611 1.513 1.051 0.824 1.838 1.906 2.361 3.246zM90.093 12.581l-3.242 1.266-1.148-2.941 3.241-1.265zM99.013 13.743v0l-3.391 1.324c-0.506-1.296-1.243-2.157-2.21-2.58-0.973-0.421-2.079-0.39-3.319 0.094v0l-1.149-2.94c1.441-0.563 2.829-0.769 4.165-0.62 1.33 0.152 2.514 0.635 3.554 1.449 1.033 0.816 1.817 1.907 2.35 3.273zM100.79 27.222l3.392-1.325c0.543 1.39 0.709 2.73 0.496 4.018-0.212 1.288-0.756 2.446-1.631 3.474-0.87 1.025-2.025 1.819-3.466 2.382v0l-1.148-2.941c1.24-0.484 2.068-1.219 2.484-2.204 0.419-0.979 0.376-2.114-0.127-3.404zM96.894 36.82l-3.391 1.324-10.261-26.276 3.391-1.325z" fill="#ffffff" data-fill-palette-color="primary"></path><path d="M125.318 29.017l-10.074 2.084-0.64-3.092 10.074-2.084zM116.419 30.858l-3.565 0.737-5.715-27.624 3.565-0.738z" fill="#ffffff" data-fill-palette-color="primary"></path><path d="M134.914 28.262l-3.627 0.314-2.431-28.104 3.628-0.314z" fill="#ffffff" data-fill-palette-color="primary"></path><path d="M145.831 21.724l-3.634-0.23 0.917-14.504 3.634 0.23zM146.748 7.22l-3.634-0.23c0.092-1.463 0.51-2.74 1.253-3.832 0.736-1.085 1.72-1.902 2.954-2.45 1.241-0.555 2.633-0.783 4.177-0.686v0l-0.2 3.16c-1.329-0.084-2.396 0.222-3.201 0.92-0.812 0.696-1.262 1.736-1.349 3.118zM142.2 21.454v0l3.633 0.23c-0.087 1.382 0.227 2.477 0.945 3.283 0.71 0.806 1.73 1.251 3.058 1.336v0l-0.199 3.15c-1.543-0.098-2.895-0.503-4.057-1.216-1.154-0.713-2.028-1.651-2.621-2.814-0.601-1.156-0.854-2.479-0.759-3.969zM159.065 8.363l-3.354 0.465c-0.055-1.688-0.472-3.028-1.252-4.021-0.779-0.999-1.846-1.542-3.201-1.627v0l0.2-3.161c2.261 0.143 4.063 0.954 5.404 2.434 1.335 1.472 2.07 3.442 2.203 5.91zM154.925 21.248v0l3.271 0.854c-0.445 2.458-1.423 4.333-2.932 5.625-1.517 1.292-3.406 1.866-5.668 1.724v0l0.2-3.151c1.355 0.086 2.483-0.318 3.381-1.211 0.899-0.893 1.481-2.173 1.748-3.841z" fill="#ffffff" data-fill-palette-color="primary"></path><path d="M189.151 31.834l-3.445-1.181c0.32-0.935 0.34-1.852 0.059-2.752-0.288-0.902-0.741-1.81-1.358-2.725-0.617-0.915-1.285-1.862-2.002-2.84-0.721-0.986-1.364-2.013-1.929-3.081-0.565-1.068-0.942-2.188-1.13-3.362-0.192-1.182-0.064-2.428 0.386-3.738v0l3.444 1.181c-0.312 0.91-0.324 1.815-0.036 2.717 0.282 0.9 0.729 1.813 1.342 2.741 0.613 0.928 1.281 1.882 2.005 2.862 0.717 0.978 1.36 1.994 1.929 3.049 0.569 1.055 0.95 2.174 1.143 3.356 0.186 1.18 0.05 2.437-0.408 3.773zM183.15 13.412l-3.444-1.18c0.477-1.393 1.199-2.471 2.164-3.235 0.974-0.768 2.117-1.222 3.43-1.362 1.322-0.144 2.714 0.034 4.177 0.536v0l-1.014 2.957c-1.266-0.434-2.37-0.446-3.313-0.037-0.943 0.409-1.61 1.183-2 2.321zM185.733 30.577l3.444 1.18c-0.466 1.361-1.186 2.433-2.158 3.216-0.972 0.783-2.111 1.245-3.418 1.388-1.309 0.148-2.708-0.032-4.196-0.543v0l1.027-2.995c1.266 0.434 2.368 0.453 3.307 0.056 0.939-0.396 1.603-1.163 1.994-2.302zM194.319 16.131l-3.438-0.453c0.263-1.182 0.153-2.158-0.329-2.928-0.483-0.77-1.179-1.31-2.089-1.622v0l1.014-2.957c1.183 0.405 2.172 1.014 2.967 1.827 0.797 0.806 1.368 1.734 1.711 2.783 0.344 1.049 0.399 2.166 0.164 3.35zM174.269 25.764l3.361 0.427c-0.392 1.642-0.345 3.048 0.143 4.217 0.488 1.169 1.374 1.974 2.659 2.415v0l-1.027 2.995c-2.143-0.735-3.664-1.991-4.561-3.77-0.899-1.772-1.091-3.867-0.575-6.284z" fill="#ffffff" data-fill-palette-color="primary"></path><path d="M198.236 35.996l-3.183-1.767 7.055-12.706 3.183 1.767zM205.291 23.29l-3.183-1.767c0.712-1.281 1.637-2.256 2.776-2.923 1.13-0.664 2.37-0.979 3.721-0.945 1.359 0.032 2.715 0.423 4.066 1.173v0l-1.537 2.769c-1.164-0.646-2.259-0.828-3.286-0.544-1.032 0.28-1.885 1.026-2.557 2.237zM195.072 34.193v0l3.184 1.768c-0.672 1.211-0.858 2.335-0.557 3.371 0.295 1.033 1.025 1.873 2.189 2.519v0l-1.532 2.76c-1.352-0.751-2.399-1.697-3.142-2.84-0.736-1.139-1.123-2.362-1.159-3.667-0.046-1.302 0.293-2.606 1.017-3.911zM215.925 29.61l-3.229-1.02c0.675-1.548 0.873-2.937 0.596-4.168-0.275-1.237-1.006-2.185-2.193-2.845v0l1.537-2.768c1.981 1.1 3.26 2.606 3.836 4.518 0.574 1.903 0.391 3.997-0.547 6.283zM206.654 39.471v0l2.588 2.175c-1.457 2.029-3.145 3.303-5.064 3.821-1.924 0.516-3.877 0.224-5.858-0.876v0l1.533-2.76c1.187 0.659 2.379 0.779 3.573 0.358 1.195-0.421 2.271-1.327 3.228-2.718z" fill="#ffffff" data-fill-palette-color="primary"></path><path d="M228.273 50.125l-9.477-7.752 1.973-2.412 9.477 7.752zM222.231 61.366l-2.818-2.305 17.86-21.835 2.819 2.305zM212.754 53.614l-2.818-2.305 17.86-21.835 2.818 2.305z" fill="#ffffff" data-fill-palette-color="primary"></path><path d="M241.743 73.81l-2.33-2.798 11.138-9.273 2.33 2.798zM233.961 64.462l-2.33-2.798 11.138-9.272 2.33 2.798zM252.85 64.563v0l-2.33-2.798c1.064-0.886 1.64-1.86 1.728-2.921 0.087-1.061-0.295-2.104-1.146-3.127v0l2.434-2.026c1.007 1.209 1.648 2.473 1.923 3.792 0.277 1.31 0.194 2.581-0.248 3.816-0.447 1.239-1.234 2.327-2.361 3.264zM245.068 55.216l-2.33-2.799c1.126-0.938 2.339-1.514 3.639-1.729 1.298-0.206 2.571-0.049 3.817 0.47 1.256 0.521 2.378 1.375 3.368 2.564v0l-2.434 2.026c-0.856-1.028-1.814-1.596-2.874-1.702-1.06-0.106-2.122 0.283-3.186 1.17zM239.444 70.986l2.33 2.798c-1.147 0.955-2.363 1.534-3.647 1.737-1.289 0.207-2.557 0.06-3.805-0.441-1.258-0.502-2.39-1.357-3.396-2.566v0l2.434-2.027c0.852 1.023 1.813 1.584 2.882 1.682 1.07 0.098 2.137-0.296 3.202-1.183zM231.662 61.639v0l2.33 2.798c-1.064 0.886-1.646 1.864-1.744 2.934-0.098 1.07 0.281 2.119 1.138 3.147v0l-2.434 2.027c-0.989-1.188-1.621-2.452-1.895-3.79-0.275-1.328-0.196-2.61 0.237-3.845 0.432-1.226 1.221-2.316 2.368-3.271z" fill="#ffffff" data-fill-palette-color="primary"></path><path d="M253.236 93.925l-1.769-3.182 12.669-7.039 1.768 3.183zM247.328 83.293l-1.768-3.183 12.669-7.038 1.768 3.182zM265.869 86.906v0l-1.768-3.183c1.211-0.673 1.958-1.522 2.241-2.548 0.283-1.027 0.102-2.122-0.545-3.286v0l2.769-1.538c0.764 1.375 1.159 2.737 1.184 4.084 0.028 1.338-0.29 2.572-0.954 3.703-0.67 1.134-1.646 2.057-2.927 2.768zM259.962 76.274l-1.768-3.183c1.281-0.712 2.58-1.053 3.896-1.023 1.314 0.039 2.535 0.43 3.663 1.173 1.137 0.745 2.081 1.794 2.832 3.145v0l-2.768 1.538c-0.65-1.17-1.485-1.905-2.507-2.207-1.021-0.302-2.137-0.116-3.348 0.557zM251.503 90.723l1.768 3.183c-1.305 0.725-2.607 1.068-3.906 1.027-1.305-0.037-2.524-0.417-3.657-1.141-1.142-0.727-2.095-1.778-2.859-3.153v0l2.768-1.538c0.647 1.164 1.486 1.893 2.52 2.188 1.033 0.295 2.155 0.106 3.366-0.566zM245.595 80.091v0l1.769 3.182c-1.211 0.673-1.964 1.526-2.259 2.559-0.295 1.033-0.118 2.135 0.532 3.304v0l-2.769 1.538c-0.751-1.352-1.137-2.71-1.157-4.076-0.023-1.356 0.293-2.601 0.949-3.734 0.652-1.124 1.631-2.048 2.935-2.773z" fill="#ffffff" data-fill-palette-color="primary"></path><path d="M253.565 115.32l-3.354-9.725 2.985-1.03 3.353 9.726zM250.603 106.729l-1.187-3.442 26.667-9.197 1.187 3.442z" fill="#ffffff" data-fill-palette-color="primary"></path><path d="M10.129 145.845c0-1.826 1.48-3.307 3.307-3.306 1.826 0 3.307 1.48 3.307 3.306 0 1.826-1.48 3.307-3.307 3.307-1.826 0-3.307-1.48-3.307-3.307z" fill="#ffffff" data-fill-palette-color="primary"></path><path d="M264.035 145.845c0-1.826 1.48-3.307 3.307-3.306 1.826 0 3.307 1.48 3.306 3.306 0 1.826-1.48 3.307-3.306 3.307-1.826 0-3.307-1.48-3.307-3.307z" fill="#ffffff" data-fill-palette-color="primary"></path></g><g id="text-1"><path d="M28.853 186.018l-2.808-9.245 1.757-0.533 2.807 9.245zM13.812 186.644l-0.616-2.027 15.702-4.768 0.615 2.027z" fill="#ffffff" data-fill-palette-color="primary"></path><path d="M16.943 195.485l-0.792-1.964 10.898-4.393 0.792 1.964zM19.39 201.556l-0.792-1.964 7.428-2.994 0.791 1.964zM26.817 198.562l-0.791-1.964c0.605-0.244 1.022-0.629 1.251-1.157 0.23-0.527 0.225-1.087-0.013-1.68v0l1.949-0.209c0.269 0.667 0.344 1.329 0.224 1.986-0.119 0.657-0.404 1.254-0.855 1.791-0.459 0.533-1.048 0.944-1.765 1.233zM24.324 192.51l-0.347-0.86c0.736-0.297 1.455-0.409 2.158-0.338 0.707 0.063 1.33 0.287 1.869 0.672 0.539 0.384 0.942 0.907 1.209 1.568v0l-1.949 0.209c-0.249-0.617-0.645-1.041-1.187-1.272-0.545-0.237-1.129-0.23-1.753 0.021zM16.943 195.485l-0.792-1.964 15.547-6.267 0.792 1.965z" fill="#ffffff" data-fill-palette-color="primary"></path><path d="M29.564 209.926l-3.657-7.045 1.342-0.697 3.657 7.045zM22.644 208.768l-0.055-0.107 1.629-0.846 0.055 0.107zM25.622 204.654l-0.976-1.88 3.035-1.575 0.976 1.88zM30.906 209.229l-0.976-1.88 1.075-0.557 0.975 1.879zM31.98 208.671v0l-0.975-1.879c0.609-0.316 1.008-0.758 1.197-1.327 0.199-0.565 0.148-1.137-0.152-1.716v0l1.611-0.837c0.387 0.746 0.571 1.487 0.553 2.225-0.019 0.737-0.222 1.418-0.61 2.044-0.378 0.628-0.92 1.125-1.624 1.49zM27.081 208.931v0l0.562 1.935c-0.634 0.223-1.275 0.287-1.924 0.192-0.645-0.104-1.235-0.351-1.77-0.74-0.535-0.389-0.97-0.905-1.305-1.55v0l1.629-0.846c0.257 0.495 0.629 0.848 1.117 1.057 0.487 0.209 1.051 0.193 1.691-0.048zM28.639 203.088l-0.976-1.88c0.788-0.409 1.567-0.601 2.337-0.577 0.773 0.03 1.485 0.241 2.134 0.631 0.646 0.384 1.16 0.943 1.541 1.677v0l-1.611 0.837c-0.316-0.609-0.773-0.978-1.37-1.107-0.6-0.12-1.285 0.02-2.055 0.419zM24.646 202.774v0l0.976 1.88c-0.758 0.393-1.257 0.869-1.498 1.426-0.244 0.566-0.208 1.153 0.108 1.762v0l-1.629 0.845c-0.381-0.734-0.543-1.476-0.485-2.225 0.055-0.756 0.295-1.46 0.721-2.113 0.435-0.65 1.038-1.175 1.807-1.575z" fill="#ffffff" data-fill-palette-color="primary"></path><path d="M26.208 223.147l3.831-2.687 1.216 1.734-3.831 2.687zM39.642 213.724l1.216 1.734-9.619 6.747-1.216-1.734zM40.337 221.231l1.217 1.734-3.485 2.444-1.216-1.734zM36.853 223.675v0l1.216 1.734c-0.639 0.448-1.304 0.717-1.995 0.809-0.696 0.086-1.354 0.001-1.976-0.253-0.616-0.258-1.131-0.681-1.544-1.27v0l1.237-1.521c0.367 0.523 0.834 0.832 1.402 0.927 0.573 0.091 1.126-0.051 1.66-0.426zM33.827 219.256v0l0.533 0.76c-0.556 0.39-0.883 0.878-0.981 1.464-0.107 0.585 0.03 1.149 0.412 1.694v0l-1.237 1.521c-0.409-0.583-0.623-1.21-0.64-1.879-0.023-0.665 0.128-1.31 0.455-1.933 0.328-0.633 0.814-1.175 1.458-1.627zM41.554 222.965l-1.217-1.734c0.534-0.375 0.853-0.845 0.957-1.41 0.104-0.566-0.027-1.11-0.394-1.633v0l1.851-0.646c0.413 0.589 0.636 1.217 0.669 1.884 0.033 0.667-0.11 1.313-0.427 1.938-0.327 0.623-0.806 1.157-1.439 1.601zM37.753 217.635l-0.533-0.759c0.65-0.456 1.325-0.728 2.026-0.818 0.703-0.099 1.36-0.022 1.973 0.231 0.612 0.252 1.123 0.67 1.532 1.253v0l-1.851 0.646c-0.382-0.545-0.864-0.868-1.444-0.971-0.585-0.107-1.152 0.032-1.703 0.418z" fill="#ffffff" data-fill-palette-color="primary"></path><path d="M43.074 237.095l-1.378-1.609 6.084-5.207 1.377 1.609zM39.579 233.555v0l1.43-1.012c0.363 0.424 0.781 0.695 1.253 0.813 0.472 0.118 0.983 0.083 1.532-0.103 0.558-0.186 1.121-0.521 1.687-1.007v0l0.707 0.763c-0.797 0.682-1.611 1.158-2.443 1.427-0.836 0.264-1.62 0.325-2.353 0.182-0.723-0.142-1.328-0.496-1.813-1.063zM41.009 232.543l-1.43 1.012c-0.455-0.531-0.743-1.121-0.864-1.769-0.131-0.649-0.089-1.287 0.127-1.915 0.206-0.628 0.575-1.169 1.106-1.623v0l1.352 1.471c-0.449 0.385-0.693 0.855-0.732 1.409-0.038 0.555 0.109 1.027 0.441 1.415zM41.3 229.719l-1.352-1.471c0.552-0.472 1.155-0.75 1.809-0.833 0.655-0.083 1.308 0.009 1.961 0.274 0.653 0.256 1.237 0.685 1.752 1.287v0l-1.169 1.147c-0.424-0.495-0.917-0.782-1.478-0.858-0.571-0.078-1.079 0.074-1.523 0.454zM46.557 232.759l-2.256-2.636 1.169-1.147 2.329 2.72zM46.188 233.009l-0.707-0.763 2.284-1.954 0.675 0.789zM49.119 231.92v0l-1.377-1.609c0.521-0.446 0.809-0.967 0.865-1.563 0.065-0.596-0.114-1.141-0.539-1.637v0l1.38-1.181c0.547 0.638 0.894 1.319 1.043 2.041 0.149 0.722 0.106 1.432-0.129 2.129-0.226 0.698-0.64 1.305-1.243 1.82zM45.09 226.78v0l-0.967-1.735c0.588-0.388 1.201-0.603 1.838-0.644 0.633-0.046 1.257 0.062 1.871 0.324 0.614 0.262 1.159 0.672 1.635 1.228v0l-1.379 1.181c-0.376-0.439-0.825-0.705-1.347-0.799-0.517-0.097-1.067 0.051-1.651 0.445z" fill="#ffffff" data-fill-palette-color="primary"></path><path d="M52.032 241.677v0c0.272-0.28 0.395-0.61 0.371-0.99-0.02-0.375-0.116-0.792-0.29-1.251-0.173-0.459-0.358-0.934-0.555-1.425-0.197-0.501-0.357-1.008-0.479-1.52-0.117-0.517-0.12-1.03-0.008-1.54 0.107-0.515 0.38-0.999 0.82-1.453v0c0 0 0.048 0.047 0.145 0.141 0.096 0.094 0.219 0.213 0.369 0.358 0.15 0.145 0.297 0.288 0.441 0.429 0.145 0.141 0.268 0.26 0.369 0.358 0.096 0.094 0.145 0.141 0.145 0.141v0c-0.267 0.275-0.388 0.602-0.364 0.982 0.02 0.385 0.116 0.802 0.29 1.251 0.178 0.454 0.368 0.934 0.57 1.44 0.202 0.506 0.355 1.015 0.457 1.527 0.107 0.517 0.115 1.03 0.023 1.54-0.093 0.501-0.366 0.985-0.821 1.452v0c0 0-0.048-0.047-0.145-0.14-0.101-0.098-0.227-0.22-0.376-0.365-0.15-0.145-0.297-0.288-0.441-0.429-0.145-0.141-0.268-0.26-0.369-0.358-0.101-0.098-0.152-0.148-0.152-0.148zM48.26 242.723v0l1.286-1.324c0.41 0.398 0.848 0.627 1.315 0.687 0.467 0.05 0.857-0.086 1.171-0.409v0l1.483 1.44c-0.454 0.468-0.985 0.763-1.592 0.887-0.602 0.128-1.221 0.084-1.856-0.13-0.636-0.214-1.238-0.598-1.807-1.151zM53.36 234.925l-1.469-1.427c0.445-0.458 0.959-0.756 1.542-0.892 0.578-0.142 1.173-0.117 1.784 0.074 0.612 0.2 1.168 0.544 1.67 1.031v0l-1.279 1.316c-0.347-0.337-0.73-0.517-1.149-0.539-0.428-0.022-0.795 0.123-1.099 0.437zM47.689 237.332l1.678 1.082c-0.42 0.539-0.598 1.074-0.533 1.605 0.074 0.531 0.312 0.992 0.712 1.38v0l-1.286 1.324c-0.511-0.497-0.881-1.062-1.109-1.695-0.228-0.634-0.294-1.275-0.199-1.923 0.095-0.639 0.341-1.229 0.737-1.773zM57.465 239.094l-1.699-1.088c0.429-0.558 0.612-1.098 0.547-1.619-0.069-0.517-0.304-0.97-0.705-1.359v0l1.279-1.317c0.521 0.506 0.893 1.069 1.116 1.688 0.213 0.62 0.277 1.254 0.192 1.902-0.081 0.643-0.324 1.241-0.73 1.793z" fill="#ffffff" data-fill-palette-color="primary"></path><path d="M60.546 248.932v0c0.247-0.302 0.341-0.641 0.284-1.018-0.052-0.372-0.184-0.779-0.397-1.222-0.212-0.442-0.438-0.899-0.676-1.372-0.24-0.482-0.443-0.973-0.608-1.472-0.161-0.505-0.208-1.016-0.141-1.534 0.062-0.522 0.292-1.028 0.692-1.518v0c0 0 0.052 0.043 0.156 0.127 0.104 0.085 0.237 0.193 0.399 0.325 0.161 0.132 0.32 0.261 0.477 0.389 0.156 0.128 0.289 0.236 0.398 0.326 0.104 0.085 0.156 0.128 0.156 0.127v0c-0.242 0.297-0.335 0.634-0.277 1.01 0.053 0.382 0.185 0.789 0.396 1.222 0.216 0.437 0.447 0.899 0.692 1.385 0.245 0.486 0.441 0.98 0.587 1.481 0.152 0.506 0.203 1.016 0.155 1.533-0.049 0.507-0.28 1.013-0.692 1.518v0c0 0-0.052-0.043-0.156-0.128-0.109-0.089-0.245-0.2-0.406-0.331-0.161-0.132-0.32-0.261-0.477-0.389-0.156-0.128-0.289-0.236-0.398-0.325-0.109-0.089-0.164-0.134-0.164-0.134zM56.878 250.299v0l1.167-1.429c0.443 0.361 0.899 0.552 1.369 0.57 0.469 0.01 0.846-0.16 1.132-0.508v0l1.601 1.307c-0.412 0.505-0.916 0.845-1.509 1.02-0.589 0.179-1.209 0.189-1.861 0.031-0.652-0.159-1.285-0.489-1.899-0.991zM61.286 242.09l-1.586-1.294c0.404-0.495 0.89-0.836 1.459-1.023 0.564-0.191 1.158-0.218 1.784-0.08 0.627 0.147 1.211 0.441 1.753 0.883v0l-1.161 1.423c-0.375-0.306-0.772-0.452-1.191-0.439-0.429 0.015-0.781 0.191-1.058 0.53zM55.844 244.978l1.765 0.932c-0.372 0.573-0.503 1.121-0.393 1.646 0.12 0.523 0.396 0.961 0.829 1.314v0l-1.167 1.429c-0.552-0.451-0.969-0.982-1.251-1.593-0.282-0.612-0.403-1.245-0.364-1.899 0.04-0.644 0.234-1.254 0.581-1.829zM65.735 245.89l-1.786-0.937c0.38-0.593 0.515-1.146 0.405-1.661-0.114-0.509-0.387-0.94-0.819-1.293v0l1.161-1.423c0.563 0.459 0.982 0.988 1.257 1.586 0.266 0.599 0.384 1.225 0.355 1.878-0.025 0.648-0.216 1.264-0.573 1.85z" fill="#ffffff" data-fill-palette-color="primary"></path><path d="M60.74 258.649l2.629-3.872 1.752 1.19-2.629 3.872zM69.958 245.074l1.752 1.19-6.6 9.72-1.752-1.19zM73.271 251.846l1.752 1.19-2.391 3.521-1.752-1.19zM70.88 255.367v0l1.752 1.19c-0.438 0.645-0.964 1.133-1.579 1.464-0.62 0.327-1.266 0.482-1.936 0.464-0.667-0.022-1.299-0.236-1.894-0.64v0l0.617-1.86c0.528 0.359 1.075 0.482 1.639 0.369 0.568-0.118 1.035-0.447 1.401-0.987zM66.484 252.309v0l0.767 0.521c-0.381 0.562-0.514 1.134-0.398 1.717 0.107 0.585 0.436 1.064 0.987 1.438v0l-0.617 1.86c-0.59-0.4-1.011-0.91-1.266-1.529-0.258-0.614-0.344-1.27-0.26-1.969 0.083-0.708 0.345-1.387 0.787-2.038zM75.023 253.036l-1.752-1.19c0.366-0.54 0.498-1.092 0.395-1.658-0.103-0.566-0.419-1.028-0.948-1.387v0l1.502-1.26c0.595 0.404 1.026 0.912 1.293 1.524 0.267 0.612 0.363 1.267 0.288 1.964-0.084 0.699-0.344 1.368-0.778 2.007zM69.58 249.401l-0.768-0.521c0.446-0.656 0.98-1.151 1.605-1.483 0.622-0.342 1.264-0.503 1.926-0.485 0.662 0.019 1.288 0.228 1.877 0.629v0l-1.502 1.26c-0.551-0.374-1.116-0.506-1.694-0.395-0.585 0.107-1.066 0.438-1.444 0.995z" fill="#ffffff" data-fill-palette-color="primary"></path><path d="M83.158 261.899l-1.858-1.017 1.642-2.999 1.858 1.017zM77.425 258.761l-1.857-1.017 1.642-2.999 1.857 1.017zM82.355 254.503l-0.124-0.068 0.882-1.61 0.123 0.068zM77.255 263.818l-0.124-0.067 0.887-1.619 0.123 0.068zM79.058 255.779l-1.858-1.017c0.417-0.761 0.955-1.352 1.614-1.772 0.662-0.412 1.372-0.636 2.128-0.674 0.751-0.041 1.489 0.137 2.215 0.533v0l-0.882 1.61c-0.602-0.329-1.185-0.384-1.749-0.164-0.562 0.229-1.052 0.724-1.468 1.484zM84.79 258.918v0l-1.858-1.017c0.417-0.761 0.573-1.438 0.469-2.032-0.113-0.591-0.477-1.054-1.09-1.39v0l0.881-1.61c0.725 0.397 1.273 0.923 1.643 1.578 0.376 0.658 0.569 1.377 0.579 2.156 0.001 0.782-0.207 1.554-0.624 2.315zM75.577 257.726v0l1.858 1.017c-0.41 0.749-0.56 1.422-0.45 2.019 0.116 0.6 0.475 1.065 1.077 1.394v0l-0.887 1.619c-0.725-0.397-1.273-0.923-1.642-1.578-0.376-0.658-0.567-1.38-0.574-2.165-0.004-0.776 0.202-1.545 0.618-2.306zM81.31 260.864l1.858 1.017c-0.417 0.761-0.953 1.349-1.61 1.764-0.665 0.418-1.377 0.645-2.133 0.683-0.751 0.041-1.489-0.137-2.214-0.534v0l0.886-1.619c0.613 0.336 1.201 0.389 1.763 0.161 0.556-0.232 1.039-0.723 1.45-1.472z" fill="#ffffff" data-fill-palette-color="primary"></path><path d="M86.494 267.997l-1.933-0.866 4.808-10.721 1.932 0.866zM89.713 260.819l-0.866-0.388c0.325-0.724 0.734-1.318 1.23-1.78 0.498-0.469 1.028-0.773 1.591-0.912 0.563-0.138 1.102-0.092 1.618 0.14v0l-0.984 1.725c-0.497-0.223-0.989-0.219-1.475 0.013-0.49 0.237-0.861 0.638-1.114 1.202zM94.738 259.348l-1.375 1.317c-0.109-0.218-0.259-0.425-0.451-0.622-0.192-0.197-0.395-0.343-0.61-0.439v0l0.984-1.725c0.325 0.146 0.614 0.349 0.865 0.609 0.261 0.257 0.456 0.544 0.587 0.86z" fill="#ffffff" data-fill-palette-color="primary"></path><path d="M97.159 268.412l-1.991-0.721 4.381-12.1 1.985 0.74zM102.103 263.348l-6.012-2.177 0.594-1.64 6.012 2.177zM95.174 267.672v0l1.992 0.721c-0.153 0.424-0.226 0.801-0.217 1.133 0.015 0.334 0.102 0.616 0.262 0.846 0.166 0.232 0.401 0.403 0.705 0.513v0l-0.8 1.673c-1.024-0.371-1.709-0.987-2.055-1.849-0.346-0.862-0.308-1.874 0.113-3.037zM99.083 270.889v0l0.272 1.708c-0.371 0.116-0.751 0.168-1.14 0.155-0.385-0.003-0.751-0.068-1.099-0.194v0l0.8-1.673c0.19 0.069 0.381 0.102 0.574 0.101 0.187-0.004 0.385-0.036 0.593-0.097z" fill="#ffffff" data-fill-palette-color="primary"></path><path d="M111.679 272.627l-2.062-0.483 2.936-12.53 2.058 0.503zM115.997 267.02l-6.225-1.459 0.398-1.699 6.225 1.459zM109.622 272.124v0l2.062 0.483c-0.103 0.439-0.131 0.822-0.083 1.151 0.054 0.33 0.174 0.6 0.359 0.81 0.192 0.211 0.446 0.353 0.76 0.426v0l-0.598 1.756c-1.061-0.248-1.813-0.78-2.257-1.596-0.444-0.815-0.525-1.825-0.243-3.03zM113.88 274.862v0l0.47 1.664c-0.355 0.159-0.726 0.255-1.114 0.288-0.383 0.042-0.754 0.02-1.114-0.064v0l0.598-1.756c0.196 0.046 0.391 0.057 0.583 0.033 0.186-0.026 0.378-0.081 0.577-0.165z" fill="#ffffff" data-fill-palette-color="primary"></path><path d="M125.809 274.495l-2.094-0.323 0.523-3.379 2.093 0.323zM119.35 273.497l-2.093-0.324 0.522-3.379 2.093 0.324zM122.535 267.815l-0.14-0.022 0.281-1.814 0.139 0.022zM120.912 278.31l-0.139-0.021 0.282-1.824 0.139 0.021zM119.869 270.138l-2.093-0.324c0.133-0.857 0.437-1.596 0.914-2.216 0.482-0.613 1.073-1.066 1.772-1.359 0.692-0.294 1.446-0.379 2.263-0.252v0l-0.28 1.814c-0.678-0.105-1.245 0.042-1.701 0.441-0.451 0.407-0.742 1.038-0.875 1.896zM126.328 271.136v0l-2.093-0.323c0.133-0.857 0.049-1.547-0.252-2.07-0.308-0.517-0.807-0.829-1.498-0.936v0l0.28-1.814c0.817 0.126 1.511 0.434 2.082 0.924 0.577 0.491 1.003 1.101 1.279 1.831 0.267 0.735 0.335 1.532 0.202 2.388zM117.26 273.153v0l2.093 0.324c-0.13 0.844-0.042 1.528 0.265 2.051 0.313 0.525 0.809 0.839 1.486 0.944v0l-0.282 1.824c-0.817-0.126-1.511-0.434-2.081-0.924-0.577-0.491-1.003-1.104-1.277-1.84-0.268-0.729-0.336-1.522-0.204-2.379zM123.719 274.152l2.093 0.323c-0.133 0.857-0.437 1.593-0.913 2.206-0.484 0.619-1.075 1.076-1.773 1.369-0.692 0.294-1.446 0.379-2.264 0.252v0l0.282-1.824c0.691 0.107 1.262-0.043 1.713-0.449 0.444-0.408 0.731-1.033 0.862-1.877z" fill="#ffffff" data-fill-palette-color="primary"></path><path d="M143.17 279.465l-2.118-0.042 0.16-8.006 2.117 0.042zM138.202 279.719v0l0.196-1.741c0.558 0.011 1.038-0.121 1.44-0.395 0.402-0.274 0.716-0.678 0.942-1.212 0.233-0.54 0.356-1.183 0.371-1.929v0l1.04-0.02c-0.021 1.049-0.207 1.973-0.56 2.773-0.359 0.8-0.835 1.426-1.429 1.878-0.587 0.446-1.254 0.661-2 0.646zM138.398 277.978l-0.196 1.741c-0.699-0.014-1.331-0.191-1.896-0.532-0.572-0.334-1.02-0.79-1.345-1.368-0.332-0.572-0.49-1.207-0.476-1.906v0l1.998-0.031c-0.012 0.592 0.177 1.086 0.565 1.484 0.389 0.398 0.839 0.602 1.35 0.612zM136.483 275.882l-1.998 0.031c0.014-0.726 0.209-1.361 0.582-1.905 0.374-0.544 0.877-0.971 1.509-1.281 0.625-0.317 1.334-0.468 2.127-0.452v0l0.078 1.635c-0.652-0.013-1.194 0.165-1.624 0.533-0.438 0.375-0.663 0.854-0.674 1.439zM142.25 273.979l-3.469-0.069-0.078-1.635 3.58 0.071zM142.191 274.422l-1.04 0.02 0.06-3.005 1.039 0.02zM143.328 271.509v0l-2.117-0.042c0.014-0.686-0.184-1.248-0.592-1.686-0.401-0.445-0.928-0.674-1.58-0.687v0l0.036-1.815c0.84 0.017 1.58 0.21 2.217 0.578 0.638 0.369 1.139 0.873 1.504 1.513 0.371 0.633 0.548 1.346 0.532 2.139zM136.81 271.097v0l-1.939-0.432c0.101-0.697 0.349-1.298 0.742-1.801 0.387-0.503 0.882-0.897 1.486-1.181 0.604-0.284 1.273-0.419 2.006-0.404v0l-0.036 1.815c-0.578-0.011-1.076 0.147-1.493 0.475-0.417 0.321-0.672 0.831-0.766 1.528z" fill="#ffffff" data-fill-palette-color="primary"></path><path d="M153.74 266.92l-2.103 0.248-0.548-4.648 2.104-0.247zM153.738 266.9l1.374 11.669-2.103 0.248-1.375-11.669zM160.676 269.851l0.498 4.227-2.104 0.247-0.497-4.227zM160.676 269.851l-2.103 0.247c-0.076-0.648-0.339-1.152-0.788-1.511-0.449-0.36-0.99-0.503-1.624-0.429v0l0.31-1.935c0.715-0.084 1.373 0.018 1.976 0.305 0.603 0.288 1.104 0.72 1.503 1.296 0.394 0.583 0.636 1.259 0.726 2.027zM154.181 270.666l-0.921 0.109c-0.093-0.788-0.012-1.512 0.242-2.171 0.247-0.665 0.626-1.208 1.139-1.627 0.513-0.419 1.123-0.67 1.83-0.754v0l-0.31 1.935c-0.661 0.078-1.174 0.348-1.54 0.811-0.372 0.464-0.519 1.029-0.44 1.697zM159.07 274.325v0l2.104-0.247c0.091 0.775 0.013 1.488-0.236 2.14-0.255 0.653-0.641 1.193-1.16 1.619-0.519 0.42-1.136 0.672-1.85 0.756v0l-0.752-1.811c0.634-0.075 1.128-0.339 1.481-0.793 0.352-0.461 0.49-1.016 0.413-1.664zM153.745 274.891v0l0.921-0.108c0.079 0.674 0.354 1.194 0.823 1.558 0.464 0.372 1.026 0.519 1.687 0.441v0l0.752 1.811c-0.708 0.083-1.36-0.026-1.958-0.328-0.597-0.295-1.092-0.735-1.486-1.318-0.401-0.589-0.648-1.274-0.739-2.056z" fill="#ffffff" data-fill-palette-color="primary"></path><path d="M167.632 276.6l-2.074 0.427-2.37-11.508 2.074-0.427zM166.046 268.895l-0.929 0.191c-0.16-0.777-0.175-1.498-0.044-2.163 0.129-0.672 0.382-1.229 0.758-1.67 0.376-0.441 0.841-0.719 1.394-0.833v0l0.211 1.975c-0.533 0.11-0.93 0.401-1.19 0.873-0.258 0.479-0.325 1.021-0.2 1.627zM169.262 264.763l-0.345 1.873c-0.216-0.114-0.459-0.194-0.73-0.241-0.271-0.047-0.521-0.047-0.751 0v0l-0.211-1.975c0.349-0.072 0.702-0.076 1.058-0.012 0.362 0.056 0.688 0.174 0.979 0.355z" fill="#ffffff" data-fill-palette-color="primary"></path><path d="M176.815 274.383l-2.046 0.544-3.02-11.355 2.047-0.544zM172.351 261.795v0c-0.37 0.099-0.719 0.056-1.047-0.129-0.323-0.193-0.533-0.474-0.631-0.844v0c-0.1-0.377-0.058-0.729 0.126-1.057 0.189-0.336 0.469-0.553 0.839-0.651v0c0.377-0.1 0.731-0.052 1.062 0.146 0.336 0.189 0.553 0.472 0.653 0.849v0c0.099 0.37 0.049 0.721-0.148 1.051-0.193 0.323-0.477 0.534-0.854 0.635z" fill="#ffffff" data-fill-palette-color="primary"></path><path d="M189.122 270.69l-2.001 0.695-3.991-11.501 2.001-0.694zM181.48 268.603l-2.001 0.694-1.296-3.735 2.001-0.694zM180.184 264.868v0l-2.001 0.694c-0.254-0.73-0.33-1.444-0.231-2.141 0.108-0.692 0.371-1.3 0.788-1.821 0.417-0.522 0.971-0.903 1.664-1.143v0l1.123 1.606c-0.603 0.209-1.032 0.575-1.284 1.097-0.253 0.522-0.273 1.091-0.059 1.708zM185.26 263.159v0l-0.886 0.308c-0.22-0.635-0.596-1.081-1.127-1.339-0.53-0.257-1.104-0.279-1.72-0.065v0l-1.123-1.606c0.661-0.229 1.316-0.268 1.966-0.117 0.65 0.151 1.228 0.474 1.735 0.968 0.51 0.485 0.895 1.102 1.155 1.851zM179.479 269.297l2.001-0.694c0.214 0.616 0.583 1.054 1.107 1.313 0.522 0.253 1.085 0.275 1.688 0.065v0l0.113 1.957c-0.692 0.24-1.364 0.285-2.014 0.133-0.653-0.158-1.236-0.475-1.75-0.951-0.508-0.479-0.889-1.086-1.145-1.823zM185.633 267.097l0.886-0.307c0.258 0.743 0.338 1.466 0.241 2.169-0.094 0.694-0.348 1.306-0.762 1.834-0.412 0.535-0.949 0.916-1.61 1.145v0l-0.113-1.957c0.616-0.214 1.052-0.589 1.307-1.126 0.257-0.53 0.274-1.117 0.051-1.758zM187.098 271.318l2.001-0.694c0.258 0.743 0.316 1.474 0.174 2.192-0.144 0.712-0.465 1.346-0.963 1.903-0.495 0.563-1.133 0.98-1.914 1.252v0l-0.605-1.744c0.603-0.209 1.027-0.588 1.271-1.135 0.242-0.554 0.254-1.145 0.036-1.774zM181.324 274.059l1.719-1.013c0.299 0.615 0.7 1.013 1.204 1.194 0.502 0.175 1.016 0.17 1.544-0.013v0l0.605 1.744c-0.673 0.234-1.344 0.31-2.013 0.229-0.669-0.081-1.267-0.308-1.794-0.68-0.536-0.376-0.958-0.863-1.266-1.461z" fill="#ffffff" data-fill-palette-color="primary"></path><path d="M194.976 267.646l-1.925 0.883-4.899-10.679 1.925-0.883zM200.926 264.917l-1.926 0.883-3.339-7.278 1.925-0.884zM197.586 257.638l-1.925 0.884c-0.272-0.593-0.677-0.991-1.214-1.196-0.538-0.205-1.097-0.174-1.677 0.092v0l-0.301-1.937c0.654-0.3 1.312-0.406 1.974-0.317 0.662 0.088 1.272 0.345 1.829 0.77 0.554 0.434 0.992 1.002 1.315 1.704zM191.658 260.414l-0.843 0.386c-0.331-0.721-0.477-1.435-0.438-2.14 0.03-0.709 0.224-1.342 0.582-1.898 0.359-0.557 0.862-0.983 1.51-1.281v0l0.301 1.937c-0.605 0.278-1.01 0.693-1.216 1.246-0.211 0.556-0.177 1.139 0.104 1.75zM194.976 267.646l-1.925 0.883-6.989-15.235 1.925-0.883z" fill="#ffffff" data-fill-palette-color="primary"></path><path d="M205.201 258.424l-1.839 1.051-6.385-11.174 1.849-1.033zM204.543 251.377l-5.552 3.173-0.866-1.515 5.552-3.173zM203.352 259.457v0l1.839-1.051c0.224 0.391 0.465 0.691 0.723 0.9 0.264 0.205 0.536 0.321 0.815 0.347 0.284 0.023 0.567-0.045 0.846-0.205v0l0.759 1.693c-0.946 0.54-1.859 0.663-2.74 0.369-0.881-0.294-1.628-0.979-2.242-2.053zM208.335 258.561v0l1.477 0.898c-0.152 0.358-0.358 0.681-0.619 0.97-0.252 0.291-0.538 0.528-0.859 0.712v0l-0.759-1.693c0.175-0.1 0.325-0.224 0.449-0.373 0.118-0.145 0.222-0.317 0.311-0.514z" fill="#ffffff" data-fill-palette-color="primary"></path><path d="M216.186 249.308l-6.57 4.453-0.849-1.252 6.571-4.453zM215.842 256.315l-0.1 0.068-1.03-1.519 0.101-0.068zM211.409 253.837l-1.753 1.188-1.918-2.83 1.753-1.188zM215.338 248.056l-1.754 1.188-0.679-1.002 1.754-1.188zM214.659 247.054v0l-1.754 1.188c-0.385-0.568-0.87-0.913-1.456-1.035-0.585-0.132-1.147-0.015-1.687 0.351v0l-1.019-1.502c0.696-0.471 1.411-0.741 2.145-0.808 0.734-0.067 1.435 0.055 2.101 0.367 0.668 0.303 1.225 0.782 1.67 1.439zM215.487 251.89v0l1.857-0.783c0.296 0.604 0.434 1.233 0.414 1.887-0.029 0.653-0.205 1.268-0.528 1.845-0.324 0.577-0.786 1.069-1.388 1.476v0l-1.029-1.519c0.462-0.313 0.768-0.724 0.919-1.232 0.151-0.508 0.069-1.066-0.245-1.674zM209.503 251.023l-1.754 1.189c-0.498-0.735-0.78-1.486-0.845-2.254-0.06-0.772 0.066-1.503 0.378-2.193 0.306-0.687 0.802-1.262 1.486-1.726v0l1.019 1.502c-0.568 0.385-0.881 0.881-0.94 1.49-0.049 0.61 0.169 1.274 0.656 1.992zM209.656 255.025v0l1.753-1.188c0.479 0.707 1.009 1.148 1.591 1.322 0.591 0.176 1.17 0.072 1.737-0.312v0l1.03 1.519c-0.685 0.464-1.403 0.711-2.154 0.741-0.757 0.034-1.484-0.123-2.182-0.47-0.696-0.356-1.288-0.894-1.775-1.612z" fill="#ffffff" data-fill-palette-color="primary"></path><path d="M223.73 250.015l-1.654 1.324-7.341-9.174 1.654-1.323zM218.815 243.873l-0.74 0.593c-0.496-0.619-0.837-1.255-1.023-1.908-0.19-0.657-0.218-1.268-0.084-1.831 0.134-0.564 0.422-1.022 0.863-1.376v0l1.086 1.664c-0.425 0.34-0.646 0.78-0.663 1.318-0.013 0.544 0.174 1.057 0.561 1.54zM219.801 238.73l0.544 1.826c-0.244-0.003-0.497 0.036-0.759 0.117-0.263 0.081-0.486 0.195-0.669 0.342v0l-1.086-1.664c0.278-0.223 0.591-0.387 0.937-0.491 0.348-0.115 0.692-0.158 1.033-0.13z" fill="#ffffff" data-fill-palette-color="primary"></path><path d="M235.334 239.458l-1.487 1.508-9.149-9.022 1.487-1.508zM230.214 230.401l-4.44 4.502-1.243-1.225 4.44-4.502zM226.185 230.436l-1.487 1.508c-0.871-0.859-1.336-1.752-1.396-2.679-0.059-0.927 0.294-1.778 1.059-2.553v0l1.42 1.145c-0.227 0.23-0.36 0.49-0.401 0.78-0.046 0.286-0.001 0.58 0.135 0.884 0.135 0.303 0.358 0.608 0.67 0.915zM226.366 225.714l0.475 1.644c-0.214 0.035-0.406 0.091-0.577 0.168-0.18 0.077-0.341 0.188-0.483 0.331v0l-1.42-1.145c0.26-0.263 0.558-0.484 0.894-0.663 0.336-0.188 0.706-0.3 1.111-0.335z" fill="#ffffff" data-fill-palette-color="primary"></path><path d="M234.909 222.253l1.367-1.618 8.975 7.584-1.367 1.618zM230.691 227.245l1.367-1.618 6.109 5.162-1.367 1.618zM236.8 232.407l1.367-1.618c0.498 0.421 1.039 0.609 1.622 0.565 0.578-0.049 1.073-0.317 1.485-0.804v0l1.096 1.625c-0.473 0.56-1.028 0.94-1.665 1.142-0.642 0.197-1.305 0.222-1.99 0.074-0.681-0.153-1.319-0.481-1.915-0.984zM240.972 227.376l0.605-0.716c0.601 0.508 1.039 1.089 1.313 1.743 0.274 0.645 0.367 1.3 0.28 1.966-0.082 0.67-0.349 1.272-0.8 1.806v0l-1.096-1.625c0.421-0.498 0.604-1.043 0.55-1.635-0.049-0.587-0.333-1.1-0.852-1.539z" fill="#ffffff" data-fill-palette-color="primary"></path><path d="M246.614 220.214l-1.217 1.734-10.533-7.393 1.233-1.722zM243.019 214.118l-3.673 5.234-1.428-1.003 3.673-5.233zM245.381 221.936v0l1.217-1.733c0.369 0.259 0.714 0.427 1.037 0.506 0.327 0.073 0.622 0.062 0.885-0.032 0.267-0.1 0.494-0.282 0.679-0.546v0l1.406 1.209c-0.626 0.892-1.4 1.392-2.322 1.5-0.922 0.108-1.89-0.193-2.902-0.904zM249.508 219.005v0l1.719 0.184c0.015 0.388-0.034 0.769-0.147 1.141-0.104 0.371-0.262 0.707-0.475 1.01v0l-1.406-1.209c0.116-0.165 0.198-0.341 0.247-0.529 0.045-0.182 0.066-0.381 0.062-0.597z" fill="#ffffff" data-fill-palette-color="primary"></path><path d="M246.289 205.262l1.075-1.825 10.123 5.966-1.075 1.824zM242.971 210.892l1.075-1.824 6.891 4.06-1.076 1.825zM249.861 214.953l1.076-1.825c0.562 0.331 1.127 0.426 1.693 0.284 0.562-0.145 1.005-0.493 1.329-1.043v0l1.354 1.418c-0.372 0.631-0.855 1.1-1.449 1.406-0.6 0.302-1.249 0.438-1.95 0.408-0.697-0.036-1.381-0.252-2.053-0.648zM253.127 209.292l0.476-0.808c0.678 0.399 1.207 0.899 1.588 1.497 0.378 0.59 0.58 1.22 0.606 1.891 0.032 0.674-0.13 1.313-0.484 1.915v0l-1.354-1.418c0.331-0.562 0.42-1.13 0.267-1.704-0.147-0.571-0.514-1.029-1.099-1.373z" fill="#ffffff" data-fill-palette-color="primary"></path><path d="M260.37 203.534l-0.914 1.91-10.598-5.072 0.914-1.91zM253.275 200.138l-0.41 0.855c-0.716-0.343-1.299-0.767-1.749-1.274-0.457-0.509-0.747-1.047-0.872-1.613-0.124-0.566-0.064-1.104 0.18-1.613v0l1.7 1.026c-0.235 0.491-0.243 0.983-0.024 1.475 0.225 0.495 0.617 0.877 1.175 1.144zM251.929 195.077l1.283 1.408c-0.221 0.103-0.432 0.248-0.633 0.435-0.201 0.187-0.353 0.387-0.455 0.599v0l-1.7-1.026c0.154-0.321 0.364-0.605 0.63-0.85 0.263-0.254 0.555-0.443 0.875-0.566z" fill="#ffffff" data-fill-palette-color="primary"></path><path d="M261.066 188.166l-2.884 7.395-1.409-0.55 2.883-7.395zM264.759 194.13l-0.044 0.113-1.711-0.667 0.044-0.112zM259.702 194.605l-0.769 1.974-3.186-1.242 0.77-1.974zM259.656 187.616l-0.769 1.973-1.128-0.439 0.77-1.974zM258.529 187.176v0l-0.77 1.974c-0.639-0.249-1.235-0.258-1.787-0.026-0.556 0.223-0.953 0.639-1.189 1.247v0l-1.692-0.66c0.305-0.783 0.741-1.411 1.308-1.882 0.566-0.472 1.213-0.768 1.938-0.89 0.722-0.13 1.452-0.051 2.192 0.237zM261.955 190.688v0l1.084-1.699c0.586 0.33 1.057 0.769 1.413 1.32 0.347 0.554 0.551 1.16 0.611 1.818 0.061 0.659-0.041 1.326-0.304 2.003v0l-1.711-0.666c0.203-0.52 0.222-1.032 0.058-1.537-0.164-0.504-0.548-0.917-1.151-1.239zM256.536 193.371l-0.77 1.973c-0.827-0.322-1.485-0.781-1.975-1.376-0.487-0.601-0.798-1.275-0.933-2.021-0.138-0.739-0.056-1.494 0.244-2.264v0l1.692 0.659c-0.249 0.639-0.225 1.226 0.071 1.76 0.306 0.53 0.862 0.953 1.671 1.269zM258.933 196.579v0l0.769-1.974c0.796 0.31 1.482 0.372 2.06 0.186 0.586-0.19 1.004-0.604 1.253-1.243v0l1.711 0.667c-0.3 0.771-0.751 1.381-1.353 1.832-0.604 0.457-1.292 0.741-2.064 0.852-0.776 0.102-1.568-0.005-2.376-0.32z" fill="#ffffff" data-fill-palette-color="primary"></path><path d="M267.509 185.458v0c-0.117 0.372-0.34 0.644-0.669 0.815-0.331 0.178-0.682 0.208-1.054 0.091v0c-0.372-0.117-0.646-0.344-0.822-0.682-0.178-0.331-0.208-0.682-0.091-1.054v0c0.115-0.366 0.342-0.639 0.682-0.821 0.337-0.176 0.692-0.205 1.064-0.088v0c0.372 0.117 0.643 0.343 0.812 0.679 0.167 0.342 0.193 0.695 0.078 1.06z" fill="#ffffff" data-fill-palette-color="primary"></path></g></svg></g></svg></g></svg></g></svg></g><defs></defs></svg><rect width="279.72" height="279.72" fill="none" stroke="none" visibility="hidden"></rect></g></svg></g></svg>